# xmcd
#
# Track frame offsets:
#  150
#  22922
#  42569
#  58633
#  83748
#  107713
#  127680
#  150591
#  173724
#  186103
#  204189
#  221485
#
# Disc length: 3248 seconds
#
# Revision: 0
# Processed by: cddbd v1.5.1PL0 Copyright (c) Steve Scherf et al.
# Submitted via: Collectorz.com Music Collector 6.9
#
DISCID=910cae0c
DTITLE=Bonnie Raitt - Luck Of The Draw
DYEAR=1991
DGENRE=Blues
TTITLE0=All At Once
TTITLE1=Come To Me
TTITLE2=Good Man, Good Woman
TTITLE3=I Can't Make You Love Me
TTITLE4=Luck Of The Draw
TTITLE5=No Business
TTITLE6=Not The Only One
TTITLE7=One Part Be My Lover
TTITLE8=Papa Come Quick (Jody And Chico)
TTITLE9=Slow Ride
TTITLE10=Something To Talk About
TTITLE11=Tangled And Dark
EXTD=
EXTT0=
EXTT1=
EXTT2=
EXTT3=
EXTT4=
EXTT5=
EXTT6=
EXTT7=
EXTT8=
EXTT9=
EXTT10=
EXTT11=
PLAYORDER=
